<svg id="Layer_1" data-name="Layer 1" xmlns="http://www.w3.org/2000/svg" viewBox="0 0 300 300"><defs><style>.cls-1,.cls-6{fill:#d8dfe3;}.cls-1,.cls-2,.cls-3,.cls-4{fill-rule:evenodd;}.cls-2,.cls-5{fill:red;}.cls-3{fill:#7f1919;}.cls-4{fill:#afbdc7;}.cls-6{font-size:81.66px;font-family:NemesisGrant, Nemesis Grant;}</style></defs><path class="cls-1" d="M51.69,174.58c67.18,11.65,134.36,11.26,201.53,0V81.19a4.89,4.89,0,0,0-1-3L208,19.25a4.9,4.9,0,0,0-3.93-2H66.44A14.73,14.73,0,0,0,51.69,32V145.09c0,7.3-1.71,13.48-1.71,18.42a32.35,32.35,0,0,0,1.71,11.07Z"/><path class="cls-2" d="M22.2,161.83V268A14.73,14.73,0,0,0,37,282.71h226.1A14.73,14.73,0,0,0,277.8,268V189.32a14.75,14.75,0,0,0-14.75-14.74H41.86c-6.27,0-19.66-12.75-19.66-12.75Z"/><path class="cls-3" d="M37,174.58a14.5,14.5,0,0,1-10.18-4.06,14.67,14.67,0,0,1-4.57-10.69,16.24,16.24,0,0,1,4.32-10.43A14.76,14.76,0,0,1,37,145.09H51.69v29.49Z"/><path class="cls-4" d="M204.07,17.29V66.44a14.75,14.75,0,0,0,14.75,14.75h34.4a4.89,4.89,0,0,0-1-3L208,19.25a4.9,4.9,0,0,0-3.93-2Z"/><path class="cls-5" d="M156.2,55.51a5.59,5.59,0,1,0-11.18,0v75.94l-29.58-29.59a5.59,5.59,0,0,0-7.91,7.91l39.13,39.13a5.6,5.6,0,0,0,7.91,0l39.13-39.13a5.59,5.59,0,1,0-7.91-7.91L156.2,131.45Z"/><text class="cls-6" transform="translate(81.93 258.14)">PDF</text></svg>