<svg id="Layer_1" data-name="Layer 1" xmlns="http://www.w3.org/2000/svg" viewBox="0 0 360 360" width="360" height="360"><defs><style>.cls-1{fill:#52d999;}</style></defs><path class="cls-1" d="M196.5 43.5C201.17 45.31 205.83 47.11 210.5 48.92C213.28 46.54 219.38 38.5 222.52 37.75C228.53 36.32 236.47 47.26 240.54 51.3C242.61 53.36 245 54.99 245.11 58.17C245.24 61.83 240.63 62.64 240.17 65.19C237.93 67.51 235.69 69.84 233.46 72.17C233.49 72.62 238.46 84.75 238.84 85.33C239.21 85.91 239.82 86.28 240.5 86.41C245.4 87.37 253.95 84.32 257.83 88.04C259.68 89.82 259.02 93.75 259 96C258.96 101.05 260.97 115.37 256.2 118.03C253.85 119.35 242.35 118.46 239.17 118.33C237.24 123.06 235.32 127.78 233.39 132.5C235.84 137.82 245.81 141.15 245.01 147.84C244.6 151.28 239.7 154.31 237.46 156.61C235.03 159.1 229.61 166.05 226.57 167.1C225.45 167.49 223.27 167.56 222.17 167.02C220.28 166.09 211.87 157.74 210.67 155.83C205.91 157.72 201.15 159.61 196.39 161.5C195.35 166.9 198.31 174.88 194.95 179.52C193.33 181.76 190.56 181.26 188.17 181.3C183.88 181.38 167.05 182.68 164.89 179.28C161.88 174.54 164.55 166.89 163.63 161.5C158.92 159.66 154.21 157.81 149.5 155.97C146.49 158.38 140.61 166.37 137.36 167.17C131.56 168.6 123.34 157.27 119.42 153.41C117.42 151.43 114.66 149.82 114.89 146.5C115.3 140.73 124.16 137.32 126.62 132.5C124.64 127.83 122.66 123.17 120.67 118.5C116.15 117.81 105.35 120.01 102.27 116.89C99.55 114.14 100.96 99.09 101.03 94.83C101.07 92.74 100.43 89.7 102.2 88.02C104.71 85.65 116.75 86.04 120.33 86.5C122.41 81.72 124.5 76.94 126.58 72.17C124.33 69.85 122.08 67.52 119.83 65.2C119.72 64.93 119.61 64.65 119.5 64.37C118.06 63.88 116.22 61.98 115.64 60.57C112.85 53.68 123.64 47.77 127.67 43.31C129.15 41.67 131.11 38.52 133.35 37.85C139.84 35.89 145.24 45.28 149.5 48.92C154.17 47.11 158.84 45.31 163.51 43.5C165.67 38.12 161.63 30.8 164.8 25.62C166.21 23.31 169.18 23.66 171.5 23.66C177.17 23.66 182.83 23.66 188.5 23.67C190.74 23.67 193.59 23.31 195.12 25.38C198.72 30.23 194.32 38.25 196.5 43.5ZM210.5 49.98C206.79 49 203.16 46.62 199.53 45.25C198.4 44.83 196.25 44.77 195.55 43.62C193.32 39.93 197.03 30.84 194.68 26.5C192.6 22.66 178.11 24.17 173.83 24.17C172.02 24.17 169.26 23.66 167.59 24.46C161.21 27.54 166.67 38.33 164.55 43.41C163.99 44.75 161.62 44.83 160.45 45.25C156.77 46.55 153.22 49 149.5 49.98C145.49 47.43 140.85 39.26 136.51 38.23C133.98 37.63 132.09 39.74 130.52 41.35C127.37 44.58 115.78 54.09 115.88 58.17C116.02 63.97 125.14 66.46 127.14 71.35C127.39 71.96 122.27 85.57 121.5 86.78C116.35 88.44 109.48 85.18 104.55 87.37C101.92 88.53 101.94 91.37 101.92 93.83C101.88 98.58 100.32 115.05 104.32 117.48C108.22 119.85 117.51 116.02 121.83 118.36C122.55 121.36 127.46 131.2 127.31 132.83C127.03 136.09 117.78 141.31 116.25 144.81C114.13 149.64 126.27 159.21 129.63 162.53C131.23 164.1 133.02 166.7 135.5 166.69C140.92 166.67 144.76 156.39 149.22 155.06C149.48 154.98 162.45 159.98 163.57 160.58C166.14 161.95 163.78 174.59 165.17 177.99C166.18 180.45 168.9 180.71 171.17 180.71C176.22 180.72 187.43 181.87 191.78 180.59C199.02 178.47 193.38 166.46 195.37 161.57C195.97 160.11 198.28 160.13 199.5 159.72C202.91 158.56 206.02 156.58 209.31 155.16C211.15 154.36 212.4 156.56 213.51 157.67C216.07 160.23 219.72 165.44 223.29 166.51C225.85 167.28 227.56 165.32 229.24 163.75C232.7 160.52 241.55 152.88 243.59 149.1C246.97 142.83 234.41 138.12 232.83 133.35C232.31 131.77 237.49 121.11 238.17 118.36C242.53 116.01 251.66 119.84 255.68 117.49C259.67 115.16 258.09 98.81 258.08 94.17C258.07 91.63 258.19 88.89 255.69 87.49C251.78 85.31 243.13 88.28 238.5 86.75C237.72 85.51 232.6 72 232.86 71.35C234.81 66.52 243.67 64.11 244.09 58.5C244.4 54.29 232.9 44.74 229.66 41.52C228.03 39.9 226.1 37.57 223.48 38.23C219.07 39.33 214.56 47.4 210.5 49.98ZM185.69 33.32C187.53 38.35 184.33 44.89 186.78 49.72C187.87 51.86 190.57 52.34 192.71 52.82C196.75 53.72 200.62 55.29 204.28 57.21C206.3 58.28 208.26 60.17 210.55 60.57C211.43 60.72 212.38 60.4 213.18 60.04C217.66 58.01 220.33 52.22 224.5 49.53C227.25 52.19 229.99 54.84 232.74 57.5C232.05 62.49 223.65 64.83 222.16 69.64C221.85 70.62 221.8 71.79 222.07 72.79C222.79 75.41 225.24 77.92 226.42 80.41C227.81 83.33 228.73 86.44 229.69 89.5C230.34 91.59 230.28 94.45 232.5 95.7C235.38 97.31 245.32 96.05 248.99 96.17C248.99 100.28 248.99 104.39 248.99 108.5C244.86 109.07 235.69 107.31 232.38 109.22C229.48 110.9 229.45 116.69 228.4 119.54C227.02 123.33 221.81 130.38 221.94 133.83C222.08 137.27 230.23 143.83 232.81 146.5C230.04 149.42 227.27 152.34 224.5 155.26C219.98 152.69 217.39 146.18 212.43 144.41C210.17 143.61 207.88 145.41 206.06 146.56C202.35 148.92 198.19 150.57 194.01 151.83C191.25 152.67 187.84 152.55 186.49 155.63C184.44 160.28 187.36 166.59 185.78 171.42C182.02 171.42 178.26 171.42 174.5 171.42C172.05 168.21 175.26 159.6 173.52 155.62C172.01 152.18 158.29 149.39 154.12 146.71C152.26 145.51 149.92 143.59 147.58 144.43C142.61 146.2 140.03 152.69 135.5 155.26C132.72 152.34 129.94 149.42 127.17 146.5C129.88 143.78 138.13 137.14 138.08 133.5C138.04 130.13 132.96 123.29 131.6 119.54C130.56 116.69 130.51 110.92 127.61 109.23C124.28 107.3 115.16 109.07 111.01 108.5C111.01 104.39 111.01 100.28 111.01 96.17C114.69 96.05 124.61 97.31 127.5 95.69C129.72 94.45 129.7 91.61 130.32 89.5C131.23 86.43 132.2 83.32 133.58 80.41C134.75 77.93 137.22 75.41 137.91 72.78C138.16 71.82 138.15 70.59 137.83 69.65C136.23 64.87 127.95 62.46 127.26 57.5C130.01 54.84 132.75 52.19 135.5 49.53C139.71 52.29 142.57 58.41 147.26 60.22C149.93 61.25 152.05 59.39 154.24 58.08C158.41 55.58 162.86 54.01 167.53 52.77C169.62 52.22 172.14 51.83 173.21 49.72C175.67 44.88 172.47 38.35 174.31 33.32C178.1 33.32 181.9 33.32 185.69 33.32ZM183.67 35C181.22 35 178.78 35 176.33 35C178.78 35 181.22 35 183.67 35ZM183.67 38.33C181.22 38.33 178.78 38.33 176.33 38.33C178.78 38.33 181.22 38.33 183.67 38.33ZM170.17 63.67C169.83 64.22 169.5 64.78 169.17 65.33C170.55 65.76 169.93 64.77 170.5 64C171.72 64.56 172.94 65.11 174.17 65.67C174.61 65.27 175.06 64.88 175.5 64.48C174.61 64.48 173.72 64.48 172.83 64.48C171.94 64.21 171.06 63.94 170.17 63.67ZM189.83 63.67C188.94 63.94 188.06 64.21 187.17 64.48C186.28 64.48 185.39 64.48 184.5 64.48C184.94 64.88 185.39 65.27 185.83 65.67C187.06 65.11 188.28 64.56 189.5 64C190.07 64.77 189.45 65.76 190.83 65.33C190.5 64.78 190.17 64.22 189.83 63.67ZM176.55 66.78C138.02 71.23 132.57 123.42 168.88 136.58C174.12 138.48 180.31 138.55 185.78 137.87C207.67 135.13 221.01 110.49 213.8 90.38C209.99 79.74 202.13 73.5 192.33 68.82C187.81 66.67 181.53 66.2 176.55 66.78ZM178.88 75.82C213 74.95 216.12 125.58 183.5 128.99C179.26 129.44 174.67 129.11 170.77 127.41C162.56 123.82 156.55 117.96 154.09 109.12C149.59 93 162.46 76.25 178.88 75.82ZM202.17 88.33C200.08 87.21 198.35 84.07 196.41 82.44C191.44 78.26 183.42 75.29 176.84 76.43C156.03 80.07 147.54 102.74 160.32 119.48C162.03 121.72 165.13 123.6 167.51 124.99C181.18 132.98 198.7 125.75 204.52 111.41C206.07 107.58 206.83 100.71 205.46 96.71C204.78 94.7 201.8 90.24 202.17 88.33ZM122.33 97.91C119 97.91 115.67 97.91 112.33 97.91C115.67 97.91 119 97.91 122.33 97.91ZM248 97.91C244.56 97.91 241.11 97.91 237.67 97.91C241.11 97.91 244.56 97.91 248 97.91ZM120 103.66C117.44 103.66 114.89 103.66 112.33 103.66C114.89 103.66 117.44 103.66 120 103.66ZM127.83 104.19C126.89 102.78 124.02 103.54 122.5 104.19C124.28 104.19 126.06 104.19 127.83 104.19ZM247.67 103.64C245.11 103.64 242.56 103.64 240 103.64C242.56 103.64 245.11 103.64 247.67 103.64ZM226.5 106C226.5 107.67 226.5 109.33 226.5 111C226.89 110.39 227.28 109.78 227.67 109.17C227.28 108.11 226.89 107.06 226.5 106ZM135.33 114.33C134.81 115.65 134.1 116.36 134.67 117.5C134.89 117 135.11 116.5 135.33 116C135.33 115.44 135.33 114.89 135.33 114.33ZM217.71 129C217.14 130.83 216.57 132.67 216 134.5C216.57 134.17 217.14 133.83 217.71 133.5C217.71 132 217.71 130.5 217.71 129ZM164.17 136C163.1 139.59 166.58 141.77 169 139.5C168.11 139.17 167.22 138.83 166.33 138.5C166.5 138.89 166.67 139.28 166.83 139.67C164.33 139.67 163.57 136.7 165.5 137.67C165.06 137.11 164.61 136.56 164.17 136ZM197.5 138.67C197.56 139.06 197.61 139.44 197.67 139.83C196.48 139.44 195.95 139.59 195.17 140.67C196.59 141.27 200.35 139.78 197.5 138.67ZM197.17 144.37C195.78 144.37 194.39 144.37 193 144.37C195.3 145.06 194.1 145.77 193.67 147.83C193.17 148.22 192.67 148.61 192.17 149C192.89 148.61 193.61 148.22 194.33 147.83C194.33 144.82 196.31 145.91 197.17 144.37ZM174.5 167.92C177.72 168.28 180.94 168.64 184.17 169C184.67 168.64 185.17 168.28 185.67 167.92C181.94 167.92 178.22 167.92 174.5 167.92ZM160.83 205.67C163.1 204.92 165.57 206.59 167.83 206.77C175.22 207.36 183.99 209.22 191.42 207.51C198.41 205.9 209.3 204.98 215.48 201.4C218.02 199.92 227.3 194.49 229.83 194.27C235.47 193.76 249.48 198.58 254.89 200.55C275.56 208.1 297.72 216.93 310.9 235.94C314.94 241.77 317.34 248.08 320.52 254.35C325.02 263.2 329.56 275.31 331.14 285.04C331.47 287.03 331.18 289.1 331.49 291.1C332.72 299.23 333.02 306.64 327.96 313.45C326.08 315.98 315.75 318.42 312.53 319.52C296.85 324.85 280.77 327.24 264.51 330.39C237.51 335.61 208.74 336.33 180.83 336.33C150.3 336.33 119.07 335.31 89.49 329.43C75.31 326.61 60.94 324.65 47.42 319.48C43.97 318.16 34.28 316.27 32.08 313.42C24.18 303.23 28.12 287.31 31.46 276.19C39.57 249.13 47.72 231.9 71.28 215.41C75.74 212.29 89.77 203.67 94.83 203.67C94.78 202.9 97.36 202.28 98.16 201.95C101.74 200.5 105.63 200.01 109.14 198.56C113.32 196.84 128.35 192.64 132.48 193.18C135.77 193.6 145.89 199.74 149.6 201.52C151.31 202.35 160.85 204.82 160.83 205.67ZM130.58 194.15C106.24 196.67 68.18 212.85 52.67 232.53C44.5 242.91 39.16 255.66 34.87 268.07C32.79 274.07 30.66 279.98 29.49 286.27C28.93 289.28 29.4 292.44 28.87 295.45C27.93 300.8 28.12 308.49 32.47 312.7C36.06 316.18 43.56 317.47 48.15 319.02C62.04 323.71 76.64 326.93 91.17 329.04C147.25 337.2 205.37 338.89 261.57 330.14C278.61 327.48 295.48 324.48 311.85 319.02C316.57 317.45 325.74 315.82 328.48 311.32C335.63 299.55 329.52 280.34 325.21 268.27C321.58 258.09 317.5 247.66 311.63 238.54C299.14 219.15 277.2 209.59 256.58 201.88C248.87 198.99 239.2 195.54 230.83 195.09C226.85 194.88 217.46 201.34 213.16 203C201.71 207.42 189.16 208.99 176.83 208.3C166.47 207.72 155.62 205.55 146.23 200.94C141.74 198.73 135.66 193.62 130.58 194.15ZM129.92 203.81C133.43 203.44 140.85 208.84 144.54 210.29C154.96 214.39 165.38 216.63 176.5 217.77C189.36 219.08 203.77 216.4 215.76 211.91C219.04 210.69 229.08 204.83 231.5 204.76C238.19 204.57 247.81 208.85 254.3 210.85C272.71 216.49 292.76 226.95 303.78 243.39C308.81 250.9 312.18 259.74 315.37 268.14C318.76 277.06 321.46 285.91 321.98 295.5C322.15 298.65 322.98 302.52 321.14 305.31C319.54 307.73 309.07 310.17 306.05 311.2C290.76 316.4 274.68 318.57 258.82 321.23C239.61 324.45 219.98 325.33 200.5 326.06C164.91 327.4 129.09 325.62 93.98 320.17C80.39 318.07 66.84 315.29 53.74 311.13C50.2 310 41.7 308.17 39.16 305.67C36.76 303.3 37.87 298.48 38.02 295.5C38.49 285.94 41.2 277.01 44.62 268.13C48.28 258.64 52.14 248.68 58.25 240.42C72.32 221.37 106.91 206.23 129.92 203.81Z"/><path class="cls-1" d="M210.5 49.98C214.56 47.4 219.07 39.33 223.48 38.23C226.1 37.57 228.03 39.9 229.66 41.52C232.9 44.74 244.4 54.29 244.09 58.5C243.67 64.11 234.81 66.52 232.86 71.35C232.6 72 237.72 85.51 238.5 86.75C243.13 88.28 251.78 85.31 255.69 87.49C258.19 88.89 258.07 91.63 258.08 94.17C258.09 98.81 259.67 115.16 255.68 117.49C251.66 119.84 242.53 116.01 238.17 118.36C237.49 121.11 232.31 131.77 232.83 133.35C234.41 138.12 246.97 142.83 243.59 149.1C241.55 152.88 232.7 160.52 229.24 163.75C227.56 165.32 225.85 167.28 223.29 166.51C219.72 165.44 216.07 160.23 213.51 157.67C212.4 156.56 211.15 154.36 209.31 155.16C206.02 156.58 202.91 158.56 199.5 159.72C198.28 160.13 195.97 160.11 195.37 161.57C193.38 166.46 199.02 178.47 191.78 180.59C187.43 181.87 176.22 180.72 171.17 180.71C168.9 180.71 166.18 180.45 165.17 177.99C163.78 174.59 166.14 161.95 163.57 160.58C162.45 159.98 149.48 154.98 149.22 155.06C144.76 156.39 140.92 166.67 135.5 166.69C133.02 166.7 131.23 164.1 129.63 162.53C126.27 159.21 114.13 149.64 116.25 144.81C117.78 141.31 127.03 136.09 127.31 132.83C127.46 131.2 122.55 121.36 121.83 118.36C117.51 116.02 108.22 119.85 104.32 117.48C100.32 115.05 101.88 98.58 101.92 93.83C101.94 91.37 101.92 88.53 104.55 87.37C109.48 85.18 116.35 88.44 121.5 86.78C122.27 85.57 127.39 71.96 127.14 71.35C125.14 66.46 116.02 63.97 115.88 58.17C115.78 54.09 127.37 44.58 130.52 41.35C132.09 39.74 133.98 37.63 136.51 38.23C140.85 39.26 145.49 47.43 149.5 49.98C153.22 49 156.77 46.55 160.45 45.25C161.62 44.83 163.99 44.75 164.55 43.41C166.67 38.33 161.21 27.54 167.59 24.46C169.26 23.66 172.02 24.17 173.83 24.17C178.11 24.17 192.6 22.66 194.68 26.5C197.03 30.84 193.32 39.93 195.55 43.62C196.25 44.77 198.4 44.83 199.53 45.25C203.16 46.62 206.79 49 210.5 49.98ZM185.69 33.32C181.9 33.32 178.1 33.32 174.31 33.32C172.47 38.35 175.67 44.88 173.21 49.72C172.14 51.83 169.62 52.22 167.53 52.77C162.86 54.01 158.41 55.58 154.24 58.08C152.05 59.39 149.93 61.25 147.26 60.22C142.57 58.41 139.71 52.29 135.5 49.53C132.75 52.19 130.01 54.84 127.26 57.5C127.95 62.46 136.23 64.87 137.83 69.65C138.15 70.59 138.16 71.82 137.91 72.78C137.22 75.41 134.75 77.93 133.58 80.41C132.2 83.32 131.23 86.43 130.32 89.5C129.7 91.61 129.72 94.45 127.5 95.69C124.61 97.31 114.69 96.05 111.01 96.17C111.01 100.28 111.01 104.39 111.01 108.5C115.16 109.07 124.28 107.3 127.61 109.23C130.51 110.92 130.56 116.69 131.6 119.54C132.96 123.29 138.04 130.13 138.08 133.5C138.13 137.14 129.88 143.78 127.17 146.5C129.94 149.42 132.72 152.34 135.5 155.26C140.03 152.69 142.61 146.2 147.58 144.43C149.92 143.59 152.26 145.51 154.12 146.71C158.29 149.39 172.01 152.18 173.52 155.62C175.26 159.6 172.05 168.21 174.5 171.42C178.26 171.42 182.02 171.42 185.78 171.42C187.36 166.59 184.44 160.28 186.49 155.63C187.84 152.55 191.25 152.67 194.01 151.83C198.19 150.57 202.35 148.92 206.06 146.56C207.88 145.41 210.17 143.61 212.43 144.41C217.39 146.18 219.98 152.69 224.5 155.26C227.27 152.34 230.04 149.42 232.81 146.5C230.23 143.83 222.08 137.27 221.94 133.83C221.81 130.38 227.02 123.33 228.4 119.54C229.45 116.69 229.48 110.9 232.38 109.22C235.69 107.31 244.86 109.07 248.99 108.5C248.99 104.39 248.99 100.28 248.99 96.17C245.32 96.05 235.38 97.31 232.5 95.7C230.28 94.45 230.34 91.59 229.69 89.5C228.73 86.44 227.81 83.33 226.42 80.41C225.24 77.92 222.79 75.41 222.07 72.79C221.8 71.79 221.85 70.62 222.16 69.64C223.65 64.83 232.05 62.49 232.74 57.5C229.99 54.84 227.25 52.19 224.5 49.53C220.33 52.22 217.66 58.01 213.18 60.04C212.38 60.4 211.43 60.72 210.55 60.57C208.26 60.17 206.3 58.28 204.28 57.21C200.62 55.29 196.75 53.72 192.71 52.82C190.57 52.34 187.87 51.86 186.78 49.72C184.33 44.89 187.53 38.35 185.69 33.32ZM176.55 66.78C181.53 66.2 187.81 66.67 192.33 68.82C202.13 73.5 209.99 79.74 213.8 90.38C221.01 110.49 207.67 135.13 185.78 137.87C180.31 138.55 174.12 138.48 168.88 136.58C132.57 123.42 138.02 71.23 176.55 66.78ZM178.88 75.82C162.46 76.25 149.59 93 154.09 109.12C156.55 117.96 162.56 123.82 170.77 127.41C174.67 129.11 179.26 129.44 183.5 128.99C216.12 125.58 213 74.95 178.88 75.82ZM130.58 194.15C135.66 193.62 141.74 198.73 146.23 200.94C155.62 205.55 166.47 207.72 176.83 208.3C189.16 208.99 201.71 207.42 213.16 203C217.46 201.34 226.85 194.88 230.83 195.09C239.2 195.54 248.87 198.99 256.58 201.88C277.2 209.59 299.14 219.15 311.63 238.54C317.5 247.66 321.58 258.09 325.21 268.27C329.52 280.34 335.63 299.55 328.48 311.32C325.74 315.82 316.57 317.45 311.85 319.02C295.48 324.48 278.61 327.48 261.57 330.14C205.37 338.89 147.25 337.2 91.17 329.04C76.64 326.93 62.04 323.71 48.15 319.02C43.56 317.47 36.06 316.18 32.47 312.7C28.12 308.49 27.93 300.8 28.87 295.45C29.4 292.44 28.93 289.28 29.49 286.27C30.66 279.98 32.79 274.07 34.87 268.07C39.16 255.66 44.5 242.91 52.67 232.53C68.18 212.85 106.24 196.67 130.58 194.15ZM129.92 203.81C106.91 206.23 72.32 221.37 58.25 240.42C52.14 248.68 48.28 258.64 44.62 268.13C41.2 277.01 38.49 285.94 38.02 295.5C37.87 298.48 36.76 303.3 39.16 305.67C41.7 308.17 50.2 310 53.74 311.13C66.84 315.29 80.39 318.07 93.98 320.17C129.09 325.62 164.91 327.4 200.5 326.06C219.98 325.33 239.61 324.45 258.82 321.23C274.68 318.57 290.76 316.4 306.05 311.2C309.07 310.17 319.54 307.73 321.14 305.31C322.98 302.52 322.15 298.65 321.98 295.5C321.46 285.91 318.76 277.06 315.37 268.14C312.18 259.74 308.81 250.9 303.78 243.39C292.76 226.95 272.71 216.49 254.3 210.85C247.81 208.85 238.19 204.57 231.5 204.76C229.08 204.83 219.04 210.69 215.76 211.91C203.77 216.4 189.36 219.08 176.5 217.77C165.38 216.63 154.96 214.39 144.54 210.29C140.85 208.84 133.43 203.44 129.92 203.81Z"/></svg>