<svg id="Layer_1" data-name="Layer 1" xmlns="http://www.w3.org/2000/svg" width="500" height="500" viewBox="0 0 500 500">
  <defs>
    <style>
      .cls-1 {
        fill: #067e34;
      }

      .cls-2 {
        fill: #fff;
      }
    </style>
  </defs>
  <title>002Logo 1</title>
  <g>
    <rect class="cls-1" x="0.60943" y="0.10654" width="499.39057" height="499.89346"/>
    <g>
      <path class="cls-2" d="M245.04431,374.04909c-.86839-.93427-1.25916-1.32953-1.6185-1.74876-7.57145-8.80067-19.958-9.2738-28.07143-.93427-5.70442,5.86163-6.96208,13.09471-5.4439,20.82038,1.57658,8.01763,6.38565,13.502,14.34189,15.62651,7.65979,2.04371,14.10234-.34436,19.12852-6.48a15.552,15.552,0,0,0,1.00014-1.54963l.77706.38179v7.22859H250.888V349.37935h-5.84366Zm.0524,12.89708a15.22477,15.22477,0,0,1-6.05028,13.00188,14.19508,14.19508,0,0,1-22.16488-6.01734,18.58128,18.58128,0,0,1-.22309-13.65916,14.17452,14.17452,0,0,1,14.21912-9.4864,15.49232,15.49232,0,0,1,13.752,11.39386,12.84693,12.84693,0,0,1,.44917,2.11707C245.1566,385.17345,245.09671,386.0628,245.09671,386.94616Z"/>
      <path class="cls-2" d="M184.65533,370.86749c7.0609.08534,11.25911,4.80758,11.29654,12.77879.03294,7.007.009,14.01251.02246,21.018.0015.86839.07636,1.73678.12127,2.707h5.61758a3.644,3.644,0,0,0,.22009-.798c.00749-8.85907.15421-17.71963-.04791-26.57271a14.39439,14.39439,0,0,0-9.96551-13.734,16.64681,16.64681,0,0,0-18.79164,5.68645c-.23207.28747-.49708.548-1.20976,1.32953v-6.65515h-5.90954v40.7514h5.953V404.558c.003-6.92615-.0539-13.8523.02545-20.777C172.07268,376.1467,177.3983,370.78065,184.65533,370.86749Z"/>
      <path class="cls-2" d="M271.096,407.4641a16.63529,16.63529,0,0,0,18.64491-4.73122c.43569-.51954.90732-1.00763,1.78469-1.97633v6.62222c1.03907.0524,1.82362.11229,2.60966.12726,1.0256.01946,2.05119.00449,3.15465.00449V366.6019h-5.76431c0,8.12692.05689,15.93045-.01647,23.734-.07187,7.4412-5.43043,12.70992-12.68,12.62308-7.1178-.08534-11.22617-4.607-11.26361-12.46887-.03144-7.08635.0015-14.17271-.02246-21.25757a23.43905,23.43905,0,0,0-.271-2.56774h-5.61458c-.04192.9163-.10181,1.63048-.10181,2.34315q-.01123,11.83779-.0015,23.67408C261.57215,399.81479,265.149,405.32756,271.096,407.4641Z"/>
      <path class="cls-2" d="M330.73036,406.92211a11.15542,11.15542,0,0,0,7.18068-10.256c.27848-5.07109-2.33118-8.15986-6.6327-10.15865-1.38044-.64081-2.83873-1.11393-4.26708-1.64994-3.37624-1.26665-6.92765-2.19942-10.09427-3.86733-3.96165-2.08713-3.8269-6.82733.08684-9.02675a10.98136,10.98136,0,0,1,4.34494-1.19179c4.7417-.39976,8.913,1.47177,13.04979,3.81343.88636-1.49573,1.69486-2.86119,2.87467-4.8525a98.21852,98.21852,0,0,0-9.33967-3.41966c-4.95581-1.27264-9.85172-1.07051-14.47664,1.593-6.24192,3.59633-7.73914,14.57247.47163,18.329,2.03622.93127,4.17126,1.65743,6.28085,2.41951,2.86568,1.03608,5.81671,1.867,8.609,3.06931a5.12547,5.12547,0,0,1,3.41516,5.08157c-.08534,2.60816-1.352,4.71775-3.73856,5.384-2.54977.71268-5.46786,1.28761-7.96522.73963-3.91524-.85791-7.61188-2.71147-11.62743-4.22816-.23506.31591-.72915.94175-1.1843,1.596-.44767.6453-.85342,1.31905-1.25767,1.94938C312.1603,407.783,323.71587,410.01237,330.73036,406.92211Z"/>
      <path class="cls-2" d="M246.45619,429.53166c-2.1021,7.74813-4.36291,15.45433-6.58628,23.16952-.30094,1.04207-.72316,2.0497-1.33852,3.776-.61536-1.82811-1.03608-2.93156-1.361-4.06346-2.23086-7.79454-4.40333-15.60555-6.71654-23.37614a2.8809,2.8809,0,0,0-1.94489-1.80565c-.6483-.021-1.70833,1.00164-1.9419,1.76223-1.46129,4.75817-2.73393,9.57324-4.08742,14.36435-1.16634,4.12485-2.35813,8.24221-3.53943,12.36406a5.06888,5.06888,0,0,1-1.5616-2.55426c-2.27428-7.8694-4.604-15.72533-6.736-23.63366-.60638-2.25182-1.64245-2.90162-3.83139-2.153-.08085.35933-.18116.53151-.14074.66477,3.26544,11.00608,6.5219,22.01516,9.87269,32.99429a2.33342,2.33342,0,0,0,1.7802,1.352,2.691,2.691,0,0,0,1.93441-1.47027c1.64545-5.20435,3.1277-10.46109,4.66684-15.70137q1.58107-5.37877,3.1801-10.756a6.8918,6.8918,0,0,1,1.66491,3.01541q3.35977,11.44252,6.66414,22.9c.32639,1.1334.50906,2.14253,2.06916,2.156,1.51669.01348,1.80116-.87737,2.14851-2.05868,2.46892-8.39642,5.0142-16.77189,7.50707-25.16232.786-2.6426,1.48824-5.31065,2.22338-7.95175C247.95042,426.64053,247.01615,427.47149,246.45619,429.53166Z"/>
      <path class="cls-2" d="M303.09163,447.16745c5.18788-2.28476,7.13427-5.7134,6.54436-11.54359-.41323-4.08442-3.38821-7.41724-8.35151-8.06254-4.67283-.60787-9.46245-.36682-14.19966-.35634-.40724,0-1.16484,1.05854-1.16933,1.629-.07037,10.63178-.04342,21.26206-.06588,31.89383-.003,1.1858.34436,1.76073,1.65144,1.76523,1.37445.006,1.867-.5405,1.8311-1.873-.05989-2.09312-.015-4.18773-.015-6.28235,0-5.91253.0015-5.83917,5.96943-5.91852a3.9099,3.9099,0,0,1,3.87481,2.1575c2.02424,3.38073,4.34793,6.58329,6.36769,9.96551,1.22772,2.05569,2.76836,2.27578,5.02019,1.605-3.08727-4.76117-6.04728-9.3262-9.18247-14.16223C302.23821,447.5702,302.65893,447.3576,303.09163,447.16745Zm-4.10838-1.78319a58.1747,58.1747,0,0,1-8.18981.006c-.51654-.02845-1.349-.99266-1.4014-1.58256-.17667-1.9928-.06737-4.01256-.06737-6.02183,0-2.01077-.08983-4.026.0554-6.02482.04192-.57194.74861-1.55112,1.17682-1.56609a59.692,59.692,0,0,1,9.38759.08534,7.2319,7.2319,0,0,1,6.65815,7.55049C306.47086,441.94963,303.54978,444.983,298.98325,445.38426Z"/>
      <path class="cls-2" d="M177.63336,430.25782c-4.07993,3.83588-5.646,8.85757-5.6086,14.46467.253,1.98232.34436,4.00058.78754,5.93948,1.58855,6.9561,6.465,11.41932,13.2085,12.26525,5.57416.7007,11.62593-2.63811,14.22361-8.41739,3.13069-6.96508,3.17261-14.09485-.65728-20.85481A14.08642,14.08642,0,0,0,177.63336,430.25782Zm19.20787,23.44351c-3.94668,8.01014-13.88524,8.371-18.72876.85042-3.54991-5.51128-3.3403-15.04709.44767-20.40565a10.41663,10.41663,0,0,1,17.236-.1602c2.2114,2.99894,3.06032,6.02932,3.63526,11.08544C198.593,447.961,198.1498,451.04525,196.84123,453.70133Z"/>
      <path class="cls-2" d="M276.22547,459.46563c-4.59048.01048-9.18247-.02994-13.773.018-1.47776.01647-2.21739-.38778-2.16648-2.04221.09732-3.13818.10181-6.28384-.003-9.422-.05689-1.67988.69321-2.01826,2.168-1.9928,3.94518.06588,7.89485.08684,11.837-.04192a2.51446,2.51446,0,0,0,1.91495-1.358c.38479-1.51669-.83994-1.57358-1.96436-1.56909-3.94668.015-7.89485-.04641-11.84.02845-1.53316.02994-2.16948-.43419-2.11258-2.05119.10031-2.89563.13176-5.80323-.01048-8.69587-.09133-1.88351.66477-2.31471,2.38957-2.27728q6.76221.14373,13.5289-.02695a2.51822,2.51822,0,0,0,1.92094-1.36247c.38179-1.51369-.83994-1.57208-1.96735-1.56909-5.71939.01347-11.43728.04342-17.15518-.01647-1.52417-.01647-2.159.4297-2.15,2.05569q.0786,15.58384-.00449,31.16918c-.01048,1.73678.64381,2.23835,2.28027,2.183,2.81628-.09732,5.637-.02695,8.45631-.02545,2.90012.0015,5.80473.08983,8.69587-.06288a2.54518,2.54518,0,0,0,1.92693-1.35948C278.57161,459.54648,277.35587,459.46264,276.22547,459.46563Z"/>
      <path class="cls-2" d="M332.99266,445.39623c-1.69486-.90283-3.51548-1.56759-5.24028-2.418a35.87592,35.87592,0,0,1-6.12514-3.261,5.46979,5.46979,0,0,1,.65578-8.99681,8.37128,8.37128,0,0,1,7.20314-.74113,57.67782,57.67782,0,0,1,5.97542,2.61415c.4836-.68124.98218-1.38044,1.58406-2.22487a14.70678,14.70678,0,0,0-13.08273-3.47056c-4.21768.8639-7.11031,3.85535-7.62386,7.42922-.61236,4.27457.95822,7.24356,5.26573,9.60169,1.61251.88186,3.38073,1.47476,5.05762,2.24733a41.69721,41.69721,0,0,1,5.17141,2.53929,5.53706,5.53706,0,0,1,2.07066,7.38879,7.53655,7.53655,0,0,1-8.4638,3.63076,80.3573,80.3573,0,0,1-8.84559-3.59333c-.29046.34137-.89384,1.04955-1.60652,1.8865,4.77764,4.12784,9.964,5.917,15.94841,4.21768,3.54842-1.00763,6.08322-3.32234,6.70007-7.15523C338.32127,450.83714,336.88993,447.46839,332.99266,445.39623Z"/>
      <path class="cls-2" d="M153.305,407.32935v-40.72h-5.65651v40.72Z"/>
      <path class="cls-2" d="M148.77739,427.178c-.554.009-1.093.94325-1.63946,1.44781.56146.48809,1.09,1.3475,1.68587,1.39841a45.83257,45.83257,0,0,0,6.26737.04492c1.71133-.08983,2.23386.58991,2.20541,2.24284-.08085,4.66385-.02845,9.33069-.02545,13.996.003,4.827-.04492,9.65409.06887,14.47814.01347.57044.91929,1.11992,1.41188,1.67839a8.40783,8.40783,0,0,0,1.54963-1.602c.24255-.42821.05839-1.099.05839-1.66192q.00225-12.79.00449-25.58c.003-3.52147.012-3.523,3.62777-3.526a37.95651,37.95651,0,0,0,4.81656-.07336c.61386-.07935,1.12591-.92678,1.68438-1.42536-.563-.49408-1.11843-1.41038-1.68887-1.41937Q158.79231,427.02606,148.77739,427.178Z"/>
      <path class="cls-2" d="M153.77512,350.71487h-6.60125v6.39464h6.60125Z"/>
    </g>
    <g>
      <path class="cls-2" d="M227.05691,194.70695a19.15274,19.15274,0,0,0,6.11871,22.31784c-3.97888-12.66926-3.706-15.37843,2.142-27.21625a55.48307,55.48307,0,0,0,3.74041-8.87944,12.1781,12.1781,0,0,0-5.32809-13.548c2.95838,7.78374.46191,14.42453-3.39451,20.86121A46.81205,46.81205,0,0,0,227.05691,194.70695Z"/>
      <path class="cls-2" d="M252.129,106.18538c-6.19606,11.63372-14.4589,22.41882-12.25462,36.68006C248.13511,132.09754,254.74581,120.76245,252.129,106.18538Z"/>
      <path class="cls-2" d="M250.38666,83.9277c-2.48358,4.92849-5.41618,9.31772-6.93726,14.15168-1.54042,4.907-1.68866,10.25228-2.44706,15.40636C247.88589,104.81684,252.94328,95.72255,250.38666,83.9277Z"/>
      <path class="cls-2" d="M247.53355,28.51982q-.66064-.03867-1.317-.07734Q245.05641,46.28622,243.89841,64.13C251.91848,52.65952,246.76871,40.41565,247.53355,28.51982Z"/>
      <path class="cls-2" d="M248.988,65.39538c-3.91873,6.948-6.83414,13.61027-5.81364,21.8946C247.1898,80.27323,251.74016,74.01916,248.988,65.39538Z"/>
      <path class="cls-2" d="M335.91976,180.25879V168.5069c.00215-8.50562.015-8.54214-8.23277-11.22122-14.30207-4.64275-28.59984-3.52986-43.02651-.3416a86.50265,86.50265,0,0,1-18.79013,2.10546c-5.92965-.01934-9.09643-3.42459-10.3726-9.30053a53.55331,53.55331,0,0,1-.79707-6.85133c-.28359-3.36229-.4834-6.731-.77988-10.95912-2.06893,3.47186-3.53846,6.181-5.24431,8.7312-1.73378,2.5867-3.84568,4.922-5.52575,7.53882-1.87128,2.91756-3.44178,6.02633-5.57516,9.81615-1.30624.59726-3.70818,1.69511-6.69879,3.06151,1.46308.93027,2.12264,1.36425,2.79725,1.77675,7.47437,4.59118,9.97514,10.85384,7.24234,19.19188-1.75741,5.36032-4.03045,10.54877-6.01989,15.83389-1.87128,4.97146-2.6576,10.08256-1.06132,15.25382a76.85465,76.85465,0,0,0,3.34939,7.7c-6.69449-2.42772-11.55423-6.00915-13.5802-12.43079-2.3912-7.59039-.2793-14.53839,3.59646-21.16843a44.65531,44.65531,0,0,0,4.13142-8.3273c2.4578-7.45933.00859-14.74464-5.68688-17.09287-5.03161-2.07108-10.1599-1.37284-15.22159.21055a18.32945,18.32945,0,0,0,2.87674,1.25038,35.97621,35.97621,0,0,1,3.19471,1.9035c-7.0941,1.15156-8.88159,1.95292-10.80443,4.7781.70468-.09023,1.25683-.17617,1.81327-.22773,3.37947-.30937,6.70523.01289,8.37671,3.39021,1.62851,3.29354.38027,6.32926-2.12264,8.78491a16.52032,16.52032,0,0,1-4.28611,3.45467,103.89111,103.89111,0,0,1-13.0968,5.27224c-11.02142,3.33006-21.31023,7.8482-28.60413,17.16162-2.78651,3.55779-4.76736,7.74507-7.11558,11.64446q.44795.24814.90019.50058c11.6681-10.23939,24.94966-10.29955,31.41-7.60328-1.89276,2.48358-3.23983,5.39684-5.51071,6.98883a69.05548,69.05548,0,0,1-13.22785,7.2939c-8.44761,3.48045-15.79307,8.17476-20.64207,16.10245A29.07867,29.07867,0,0,0,149.40853,262.32c9.24682-12.92278,21.1405-20.21453,36.67791-23.1235-7.11988,18.28954-21.2114,29.11116-36.00546,39.48161,11.06009,1.71659,21.51648,1.14726,30.89221-6.56129a52.721,52.721,0,0,1-1.95292,11.68958c-4.25818,13.06672-14.37082,21.05027-25.34927,28.70081a64.46375,64.46375,0,0,0,14.96378-.48984c10.12982-1.8455,17.99091-7.35621,23.5274-16.97471,2.00663,8.7269.709,16.49131-1.158,24.29869,3.60076-3.764,6.94586-7.54742,12.14075-9.0685,2.967,4.33767,3.5449,9.163,3.79412,13.97551.25351,4.89411.05586,9.80971.05586,15.52667.63164-1.6994,1.01406-2.7242,1.39648-3.749a124.69014,124.69014,0,0,1,16.79424-31.70431c11.20833-14.97667,25.1645-26.03247,43.90951-29.861,5.13259-1.04843,10.42631-1.30409,15.64483-1.92284q.348-.41572.69179-.82714a11.83392,11.83392,0,0,1-2.33749-1.36855c-14.44386-13.61027-22.65085-30.05862-22.943-50.17432a5.01249,5.01249,0,0,0-2.10116-3.38162c-5.442-3.71678-9.33706-10.03315-9.20815-15.57393.97109,1.55116,1.8455,3.03143,2.7994,4.45583,3.97244,5.91891,9.48745,8.916,16.66533,8.76128a27.18977,27.18977,0,0,0,15.34835-4.675,130.93237,130.93237,0,0,0,14.3966-11.33939c4.81032-4.51814,10.22006-6.282,16.6417-6.23688,5.88239.03867,11.76692-.40605,17.65146-.60586,2.10331-.0709,3.24627-.91738,3.02069-3.19041-.14394-1.44374-.159-2.89608-.24492-4.64919H326.269c.073-1.27187.12676-2.19784.202-3.474Zm-72.53083-7.51089a76.38591,76.38591,0,0,1-7.78589-.43183c-.05586-.42754-.11172-.85722-.16758-1.28476,2.17206-1.15156,4.25173-2.591,6.55914-3.315a3.92684,3.92684,0,0,1,3.43963,1.59628A2.245,2.245,0,0,1,263.38893,172.74789Z"/>
    </g>
  </g>
</svg>
