<?xml version="1.0" encoding="UTF-8"?>
<svg id="Layer_1" data-name="Layer 1" xmlns="http://www.w3.org/2000/svg" viewBox="0 0 500 500">
  <defs>
    <style>
      .cls-1 {
        fill: #f9a61a;
      }
    </style>
  </defs>
  <path class="cls-1" d="M151.1,62.8l197.41-.23c22.11,1.57,38.84,16.07,42.13,38.2l.14,60.49c19.14,13.19,41.24,18.15,46.13,44.43,2.27,62.77.37,125.88.98,188.78-1.79,25.18-18.56,41.36-43.66,42.96H106.73c-25.58-1.63-42.07-18.08-43.7-43.7,2.67-58.73-3.43-120.44,0-178.83.93-15.9,6.3-27.99,19.48-37.22,3.81-2.67,27.04-14.57,27.68-16.42l.14-60.5c2.84-20.83,19.71-36.74,40.78-37.96ZM134.12,252.93l111.58,58.92,10.14-.19,111.19-58.91.82-2.33c-.84-49.98,1.48-100.3-1.19-150.09-2.17-7.93-9.99-13.67-18.12-14.17h-196.14c-8.58.46-17.49,7.34-18.48,16.17l.19,150.6ZM110.31,189.34c-8.13,3.76-19.35,8.26-22.42,17.35-1.52,4.51-1.73,12.94-1.25,17.74.16,1.62-.05,2.94,1.65,3.87l22.02,11.44v-50.4ZM390.65,239.74l22.02-11.44c1.7-.93,1.48-2.25,1.65-3.87.47-4.73.21-13.93-1.45-18.33-3.2-8.49-14.47-13.24-22.22-16.76v50.4ZM414.27,253.92l-149.98,79.57c-9.99,3.24-20.12,2.82-29.84-.93l-147.77-78.63v143.71c0,.33,2.08,5.37,2.5,6.16,3.11,5.84,8.84,8.91,15.21,9.99l290.62.03c6.88-.34,13.49-3.89,16.76-10.02.42-.79,2.5-5.83,2.5-6.16v-143.71Z"/>
  <g>
    <path class="cls-1" d="M258.69,256.75c-2.47,0-4.11-.82-5.76-2.47l-49.35-49.35c-2.47-2.47-3.29-5.76-1.65-9.05.82-3.29,4.11-4.94,7.4-4.94h24.68c6.58,0,13.16-2.47,17.27-7.4,4.94-4.11,7.4-10.69,7.4-17.27s-2.47-13.16-7.4-17.27c-4.11-4.94-10.69-7.4-17.27-7.4h-24.68c-4.94,0-8.23-3.29-8.23-8.23s3.29-8.23,8.23-8.23h90.48c4.94,0,8.23,3.29,8.23,8.23s-3.29,8.23-8.23,8.23h-32.9c4.94,7.4,8.23,15.63,8.23,24.68,0,10.69-4.11,21.39-12.34,28.79-7.4,8.23-18.1,12.34-28.79,12.34h-4.94l35.37,35.37c3.29,3.29,3.29,8.23,0,11.52-1.65,1.65-3.29,2.47-5.76,2.47h0Z"/>
    <path class="cls-1" d="M299.82,174.49h-90.48c-4.94,0-8.23-3.29-8.23-8.23s3.29-8.23,8.23-8.23h90.48c4.94,0,8.23,3.29,8.23,8.23s-3.29,8.23-8.23,8.23Z"/>
  </g>
</svg>